<?xml version="1.0" encoding="UTF-8"?>
<svg version="1.1" xmlns="http://www.w3.org/2000/svg" width="512" height="512" fill= "black">
<path d="M0 0 C1.33331784 0.01510704 2.66665267 0.02878458 4 0.04101562 C7.20878565 0.07589373 10.4166563 0.12489974 13.625 0.1875 C22.62627113 26.22679987 31.39757112 52.3438675 40.13119507 78.47390747 C41.37937525 82.20804102 42.62967382 85.94145505 43.88174438 89.67428589 C45.38084527 94.14419285 46.87541659 98.61558941 48.36657524 103.08815193 C48.92655712 104.76541081 49.48807114 106.44215898 50.05116463 108.11837578 C50.82787342 110.43154034 51.59896725 112.74650231 52.36865234 115.06201172 C52.59915441 115.7443006 52.82965647 116.42658949 53.06714344 117.12955379 C53.99974582 119.95247245 54.625 122.19078746 54.625 125.1875 C55.285 125.1875 55.945 125.1875 56.625 125.1875 C56.87869858 123.93875595 57.13239716 122.6900119 57.39378357 121.40342712 C58.66164527 115.71573155 60.46838796 110.25154003 62.32446289 104.73266602 C62.69378433 103.62265732 63.06310577 102.51264862 63.44361877 101.3690033 C64.65728728 97.72500582 65.8773624 94.08318984 67.09765625 90.44140625 C67.94472196 87.90326856 68.79146164 85.36502428 69.63780212 82.8266449 C71.4076202 77.52087042 73.18080325 72.21623064 74.95629883 66.91235352 C77.23610281 60.10191406 79.51029058 53.28961295 81.78273869 46.47671604 C83.5286644 41.24248759 85.27658885 36.00892733 87.02508354 30.77555656 C87.86466 28.26253584 88.70395096 25.74941972 89.5429554 23.23620796 C90.71203932 19.73580023 91.88315354 16.23607889 93.05493164 12.73657227 C93.57781769 11.16959091 93.57781769 11.16959091 94.11126709 9.57095337 C94.42948929 8.62199692 94.74771149 7.67304047 95.07557678 6.69532776 C95.35228242 5.86818551 95.62898806 5.04104326 95.91407871 4.1888361 C96.625 2.1875 96.625 2.1875 97.625 0.1875 C121.37038724 -0.44254395 143.00066995 -0.94584426 162 15.625 C163.55999324 17.12702903 165.10317085 18.64681633 166.625 20.1875 C167.26050781 20.80109375 167.89601563 21.4146875 168.55078125 22.046875 C182.47292841 36.49380376 184.07729651 54.69672121 184.06079102 73.66259766 C184.06977894 75.72841433 184.07998956 77.79422599 184.09132385 79.86003113 C184.11771236 85.44454391 184.12485231 91.02891861 184.12677121 96.61348772 C184.12890899 100.10604174 184.13532356 103.59856105 184.14326286 107.09110641 C184.17097209 119.2847185 184.18327302 131.47823247 184.1809082 143.671875 C184.17910375 155.02546381 184.21081328 166.378626 184.25813919 177.7321068 C184.29738218 187.49546617 184.31345937 197.25868607 184.31154197 207.02212369 C184.31077795 212.84683799 184.31928138 218.67117218 184.35107613 224.49580765 C184.38015087 229.97079512 184.38033641 235.4450396 184.35852623 240.92005348 C184.35539327 242.9255399 184.36245057 244.93107289 184.3806076 246.93647957 C184.53546758 265.22875933 184.53546758 265.22875933 179.22315884 271.68533897 C173.19302352 277.35325761 167.87854958 278.33640569 159.73823547 278.33467102 C158.81843389 278.33834771 157.89863231 278.3420244 156.95095795 278.3458125 C153.85572745 278.35686295 150.7605305 278.3606955 147.6652832 278.36450195 C145.45124708 278.37076558 143.23721201 278.37741229 141.0231781 278.38441467 C134.99822101 278.40183378 128.97327187 278.41237895 122.94829583 278.4206202 C119.18511012 278.42576849 115.42192688 278.4318443 111.6587429 278.43813133 C101.23679207 278.45500201 90.81484282 278.46963671 80.39288044 278.47688007 C77.68875947 278.47878992 74.98463851 278.48071026 72.28051758 278.48266602 C71.27239165 278.48339163 71.27239165 278.48339163 70.24389955 278.4841319 C59.35981158 278.49242984 48.47583359 278.51776293 37.59179363 278.55024669 C26.41358171 278.583336 15.23540956 278.6009979 4.05714482 278.60452431 C-2.21750244 278.60687628 -8.49197587 278.61585599 -14.76657677 278.64098549 C-20.67056686 278.66424835 -26.57426844 278.66850644 -32.47829247 278.65822411 C-34.64383401 278.6577282 -36.80938968 278.66406457 -38.97488785 278.67778015 C-41.93471001 278.69547597 -44.89349423 278.68840385 -47.85331726 278.67524719 C-49.1343251 278.69170106 -49.1343251 278.69170106 -50.44121188 278.70848733 C-57.1265802 278.63689793 -62.6026569 276.92827943 -67.43359375 272.15234375 C-67.88863281 271.48332031 -68.34367188 270.81429688 -68.8125 270.125 C-69.28558594 269.45339844 -69.75867188 268.78179687 -70.24609375 268.08984375 C-72.76356738 263.8475958 -72.5232717 259.71758635 -72.52217102 254.9485321 C-72.52584771 254.09830076 -72.5295244 253.24806941 -72.5333125 252.37207347 C-72.54435944 249.51195894 -72.54819499 246.65188073 -72.55200195 243.79174805 C-72.55826614 241.74508041 -72.5649129 239.69841391 -72.57191467 237.65174866 C-72.59297317 230.9175801 -72.60332275 224.18341128 -72.61328125 217.44921875 C-72.61732896 215.12940776 -72.62144589 212.80959689 -72.62563133 210.48978615 C-72.64469155 199.58466139 -72.65891753 188.6795434 -72.6672433 177.77440518 C-72.67700153 165.20111291 -72.70328067 152.62799736 -72.74374419 140.05476731 C-72.77396277 130.32972623 -72.78871786 120.60473561 -72.79202431 110.87964851 C-72.7943694 105.0754089 -72.80325854 99.27135789 -72.82848549 93.46716881 C-72.85186983 87.99816465 -72.85595786 82.52947184 -72.84572411 77.06043053 C-72.84523105 75.06188925 -72.85148283 73.06333212 -72.86528015 71.06483841 C-72.99966034 50.43174595 -68.99735182 34.10838969 -54.16015625 18.9140625 C-38.7931192 3.87031515 -21.13478856 -0.41968266 0 0 Z "  transform="translate(200.375,233.8125)"/>
<path d="M0 0 C1.05960937 0.36222656 2.11921875 0.72445312 3.2109375 1.09765625 C23.33696442 8.72899037 39.943231 24.67481469 49.02954102 44.07543945 C58.95074981 66.4708543 59.62351631 90.34740167 51.25 113.3125 C46.89674837 124.58205655 40.30983216 133.30087841 32 142 C31.45988281 142.61488281 30.91976562 143.22976562 30.36328125 143.86328125 C18.1443856 157.25174374 -2.36432532 166.1480456 -20.31201172 167.12597656 C-46.21602467 167.89631988 -68.38487506 162.32604141 -87.72265625 144.1796875 C-88.47417969 143.46039063 -89.22570312 142.74109375 -90 142 C-90.63808594 141.42507812 -91.27617187 140.85015625 -91.93359375 140.2578125 C-106.62574051 126.58004558 -113.97129662 105.11635294 -115.22265625 85.51171875 C-115.80898193 61.37039611 -107.94758861 40.37610949 -92.1875 22.1875 C-68.78933091 -2.36435385 -32.0824212 -11.24728559 0 0 Z "  transform="translate(285,68)"/>
<path d="M0 0 C0.81988403 -0.00014603 1.63976807 -0.00029205 2.48449707 -0.0004425 C5.1898871 0.00025321 7.89520796 0.00802967 10.60058594 0.01586914 C12.47816938 0.01773453 14.3557533 0.01915786 16.2333374 0.02015686 C21.17184801 0.0239725 26.11032915 0.03379468 31.04882812 0.04486084 C36.08951417 0.05509543 41.13020499 0.05965887 46.17089844 0.06469727 C56.05893221 0.07541778 65.94694412 0.09248279 75.83496094 0.11352539 C75.35140137 1.26385254 74.8678418 2.41417969 74.36962891 3.59936523 C73.73027185 5.13264903 73.09112272 6.66601954 72.45214844 8.19946289 C72.1339917 8.95477295 71.81583496 9.71008301 71.48803711 10.48828125 C67.14141024 20.95070821 64.74041661 31.554363 64.67674255 42.91563416 C64.67180458 43.56273285 64.6668666 44.20983154 64.66177899 44.87653929 C64.64653608 47.02446133 64.63807962 49.17235381 64.62963867 51.3203125 C64.62004973 52.86812597 64.61003906 54.41593688 64.59963989 55.96374512 C64.5726948 60.15119712 64.55162922 64.33866027 64.53163791 68.52615047 C64.50971394 72.90771799 64.48235672 77.28925155 64.45558167 81.67079163 C64.40574124 89.96141783 64.36077044 98.25206298 64.3175593 106.5427261 C64.26811284 115.98408551 64.21322226 125.42541084 64.15787971 134.86673725 C64.04419251 154.28230161 63.93732478 173.69789819 63.83496094 193.11352539 C52.25592392 193.2063889 40.67697615 193.27737341 29.09764194 193.32077408 C23.72031521 193.34160897 18.3432441 193.36985176 12.96606445 193.4152832 C7.77242981 193.45888705 2.57904037 193.4826933 -2.61476326 193.49303436 C-4.59182657 193.50039966 -6.56887715 193.51478226 -8.54583549 193.53644562 C-11.32471118 193.56567296 -14.10258605 193.56947335 -16.8815918 193.56762695 C-17.69080078 193.58200806 -18.50000977 193.59638916 -19.33374023 193.61120605 C-25.94152104 193.56399743 -32.13871772 191.96065705 -37.05650997 187.33404922 C-41.3775061 182.52535781 -43.41012083 178.77267184 -43.43919373 172.20849609 C-43.44916885 171.00028702 -43.45914398 169.79207794 -43.46942139 168.54725647 C-43.47031717 167.21127332 -43.47098075 165.87529001 -43.47143555 164.53930664 C-43.47905896 163.12962913 -43.48748678 161.71995577 -43.49665833 160.31028748 C-43.5186034 156.4813203 -43.52740322 152.652433 -43.53248477 148.82341003 C-43.53613099 146.42722634 -43.54237269 144.03106345 -43.54948616 141.6348877 C-43.57398912 133.26333704 -43.58703256 124.89184834 -43.59057617 116.52026367 C-43.59420315 108.73813645 -43.62403582 100.95640564 -43.66598076 93.17439938 C-43.70079046 86.47948083 -43.71612652 79.78469283 -43.71682221 73.08968449 C-43.71761197 69.09743521 -43.72620913 65.10558899 -43.75481987 61.11343384 C-43.78118162 57.35068007 -43.78310648 53.58865807 -43.76716423 49.82585335 C-43.7645123 47.80519597 -43.78641392 45.78455169 -43.80935669 43.76402283 C-43.70576155 30.70521184 -39.2448424 20.71834785 -30.42675781 11.24633789 C-22.02971716 3.14484525 -11.40732465 -0.05318829 0 0 Z "  transform="translate(43.1650390625,276.886474609375)"/>
<path d="M0 0 C10.74491632 -0.09304876 21.48973537 -0.16394104 32.23497391 -0.20724869 C37.22547988 -0.22804365 42.21570836 -0.25621198 47.20605469 -0.30175781 C52.03012536 -0.34550605 56.85393063 -0.36919781 61.67818451 -0.37950897 C63.51042605 -0.38684868 65.34265454 -0.40118017 67.1747818 -0.42292023 C82.54765084 -0.59793127 95.4202026 1.11439081 107.15625 12 C114.6208736 19.79886048 119.09632278 29.06700473 119.15390015 39.89398193 C119.16250061 41.0995575 119.17110107 42.30513306 119.17996216 43.54724121 C119.18422211 44.8667981 119.18848206 46.18635498 119.19287109 47.54589844 C119.20077639 48.95221151 119.20904561 50.35852258 119.21765137 51.76483154 C119.24382034 56.37965979 119.2591731 60.99449689 119.2734375 65.609375 C119.27879914 67.20031998 119.28417665 68.79126491 119.28956985 70.38220978 C119.31119036 77.00140981 119.3299261 83.62060745 119.34119225 90.23983383 C119.35742699 99.71463781 119.39060242 109.18903147 119.44759309 118.66368079 C119.48633268 125.33219648 119.50582962 132.0006026 119.51111281 138.66922784 C119.51476057 142.64907457 119.52672006 146.62848314 119.55921555 150.6082077 C119.58936779 154.35450856 119.5955831 158.10010777 119.58383179 161.84650421 C119.58350711 163.8679513 119.60792449 165.88935556 119.63320923 167.91064453 C119.57609435 176.26559728 118.35672701 181.43735226 112.55721092 187.51098251 C106.68186795 192.87260156 100.59293385 193.29313241 93.05712891 193.22705078 C92.1784314 193.22734283 91.29973389 193.22763489 90.39440918 193.22793579 C87.50502469 193.22654823 84.61590166 193.21101404 81.7265625 193.1953125 C79.71731711 193.19158033 77.70806989 193.18873432 75.69882202 193.18673706 C70.42164039 193.17911666 65.14456961 193.15948183 59.86743164 193.1373291 C54.47804259 193.11683636 49.08863556 193.10772801 43.69921875 193.09765625 C33.13276392 193.07623445 22.56639119 193.04211772 12 193 C11.99761165 192.20561272 11.99522329 191.41122543 11.99276257 190.59276581 C11.93344651 171.20116425 11.85779129 151.80968816 11.76428509 132.41822052 C11.71945274 123.04038116 11.68000962 113.6625787 11.65356445 104.28466797 C11.6304821 96.10423798 11.59697126 87.92392604 11.55129844 79.74358988 C11.52750328 75.41818948 11.50868525 71.092905 11.50238609 66.7674408 C11.49627248 62.6830749 11.47605108 58.59900508 11.44572449 54.51474953 C11.43704351 53.02826315 11.43320061 51.54173792 11.43499184 50.05522728 C11.44756275 34.78757781 9.07204344 21.05085663 3 7 C1.99887893 4.66714626 0.99960639 2.33350344 0 0 Z "  transform="translate(393,277)"/>
<path d="M0 0 C1.00256836 0.00757324 2.00513672 0.01514648 3.03808594 0.02294922 C20.80499007 0.41541389 34.96614671 7.35377976 47.33007812 19.98193359 C59.64639671 33.18874859 65.5158846 49.7221222 65.03125 67.734375 C63.21749552 87.27345737 55.07528117 102.19934246 40.625 115.30859375 C28.99934622 124.63333689 15.12934931 129.03270682 0.375 128.875 C-1.12885254 128.86364014 -1.12885254 128.86364014 -2.66308594 128.85205078 C-20.55228092 128.45688475 -36.04991915 121.10909676 -48.46875 108.1953125 C-61.87349231 92.47051863 -65.72940452 74.63813877 -64.3125 54.4375 C-62.23164491 37.82815219 -52.42246078 22.75896985 -39.4375 12.5625 C-27.5019733 4.09115025 -14.62899251 -0.1563669 0 0 Z "  transform="translate(405.3125,127.5625)"/>
<path d="M0 0 C1.00256836 0.00757324 2.00513672 0.01514648 3.03808594 0.02294922 C20.50199063 0.40872073 35.11945918 7.32786796 47.6875 19.4375 C60.8233558 34.57327848 65.88007486 51.593793 64.84716797 71.32617188 C63.59874199 87.8344102 55.19331509 103.1020315 42.83203125 113.94140625 C30.19795144 123.86234602 16.39987645 129.04624351 0.3125 128.875 C-1.19630737 128.86364014 -1.19630737 128.86364014 -2.7355957 128.85205078 C-10.59844384 128.67823712 -17.05884135 127.62471365 -24.3125 124.4375 C-25.31023437 124.03660156 -26.30796875 123.63570313 -27.3359375 123.22265625 C-42.27583873 116.59763578 -53.57623513 103.71574275 -60.0234375 88.890625 C-66.3456109 71.95486354 -66.22953998 53.77559588 -58.69726562 37.2668457 C-54.96571642 29.58270532 -50.52238241 23.37163275 -44.3125 17.4375 C-43.70019531 16.80585938 -43.08789062 16.17421875 -42.45703125 15.5234375 C-31.19345479 4.62010336 -15.36490895 -0.16423299 0 0 Z "  transform="translate(106.3125,127.5625)"/>
</svg>
